<?xml version="1.0" encoding="utf-8"?>
<!-- Generator: Adobe Illustrator 23.1.1, SVG Export Plug-In . SVG Version: 6.00 Build 0)  -->
<svg version="1.1" id="Capa_1" xmlns="http://www.w3.org/2000/svg" xmlns:xlink="http://www.w3.org/1999/xlink" x="0px" y="0px"
	 viewBox="0 0 512 336" style="enable-background:new 0 0 512 336;" xml:space="preserve">
<style type="text/css">
	.st0{fill:#533222;}
	.st1{fill:#5B3726;}
	.st2{fill:#744630;}
	.st3{fill:#1E7C6B;}
	.st4{fill:none;stroke:#1E7C6B;stroke-miterlimit:10;}
	.st5{fill:#3B869E;}
	.st6{fill:#1F6C8C;}
	.st7{fill:#DBDBDB;}
	.st8{fill:#208673;}
</style>
<rect x="79.4" y="291.8" class="st0" width="353.1" height="44.1"/>
<rect x="79.4" y="291.8" class="st1" width="353.1" height="17.7"/>
<rect class="st2" width="512" height="300.7"/>
<g>
	<polygon class="st1" points="512,300.5 512,288 474.1,250.3 461.6,262.8 499.7,300.7 511.8,300.7 	"/>
	<polygon class="st1" points="0,288.4 0,300.5 0.2,300.7 12.7,300.7 50.4,262.8 37.9,250.3 	"/>
</g>
<g>
	<rect id="SVGCleanerId_0" x="35.3" y="26.8" class="st3" width="441.4" height="238.5"/>
</g>
<g>
	<polygon class="st1" points="0,4.2 46.7,50.9 59.2,38.4 20.8,0 0,0 	"/>
	<polygon class="st1" points="512,0 491.2,0 461.6,29.6 474.1,42.1 512,4.2 	"/>
</g>
<g>
	<rect id="SVGCleanerId_0_1_" x="35.3" y="26.8" class="st3" width="441.4" height="238.5"/>
</g>
<g>
	<rect id="SVGCleanerId_0_2_" x="35.3" y="26.8" class="st4" width="441.4" height="238.5"/>
</g>
<rect x="326.6" y="203.6" class="st5" width="114.8" height="61.8"/>
<rect x="423.7" y="203.6" class="st6" width="17.7" height="61.8"/>
<polygon class="st7" points="280.5,265.3 256,247.8 297.1,187.5 321.6,205 "/>
<path class="st8" d="M476.7,44.1V26.8H35.3v236.4C159.1,237.2,360.5,176.5,476.7,44.1z"/>
</svg>
