<?xml version="1.0" encoding="utf-8"?>
<!-- Generator: Adobe Illustrator 23.1.1, SVG Export Plug-In . SVG Version: 6.00 Build 0)  -->
<svg version="1.1" id="Layer_1" xmlns="http://www.w3.org/2000/svg" xmlns:xlink="http://www.w3.org/1999/xlink" x="0px" y="0px"
	 viewBox="0 0 549.4 564" style="enable-background:new 0 0 549.4 564;" xml:space="preserve">
<style type="text/css">
	.st0{fill:#DFEEF4;}
	.st1{fill:#F45858;}
	.st2{fill:#3EA2E5;}
	.st3{fill:#6D7A84;}
	.st4{fill:#DC8744;}
	.st5{fill:#3A556A;}
	.st6{fill:#FCD462;}
	.st7{fill:#F6C358;}
	.st8{fill:#E56353;}
	.st9{fill:#EBF0F3;}
</style>
<g>
	<g>
		<path class="st0" d="M0,132.2h461.5v329.3H0V132.2z"/>
		<path class="st1" d="M0,38.1h461.5v94.1H0V38.1z"/>
	</g>
	<g>
		<circle class="st2" cx="85.4" cy="203" r="25.1"/>
		<circle class="st2" cx="182.3" cy="203" r="25.1"/>
		<circle class="st2" cx="279.2" cy="203" r="25.1"/>
		<circle class="st2" cx="376.1" cy="203" r="25.1"/>
		<circle class="st2" cx="85.4" cy="296.9" r="25.1"/>
		<circle class="st2" cx="182.3" cy="296.9" r="25.1"/>
		<circle class="st2" cx="279.2" cy="296.9" r="25.1"/>
		<circle class="st2" cx="376.1" cy="296.9" r="25.1"/>
		<circle class="st2" cx="85.4" cy="390.8" r="25.1"/>
		<circle class="st2" cx="182.3" cy="390.8" r="25.1"/>
		<circle class="st2" cx="279.2" cy="390.8" r="25.1"/>
		<circle class="st2" cx="376.1" cy="390.8" r="25.1"/>
	</g>
</g>
<g>
	<path class="st3" d="M215.9,0h29.8v76.2h-29.8V0z"/>
	<path class="st3" d="M335,0h29.8v76.2H335V0z"/>
	<path class="st3" d="M96.7,0h29.8v76.2H96.7V0z"/>
</g>
<g>
	<path class="st4" d="M270.9,497.5L259,536.1l-5.5,18c-1.8,5.9,3.7,11.4,9.6,9.6l18-5.5l38.6-11.9L270.9,497.5z"/>
	<path class="st5" d="M281,558.1l-18,5.5c-5.9,1.8-11.4-3.7-9.6-9.6l5.5-18L281,558.1z"/>
	
		<rect x="241" y="390.9" transform="matrix(0.7071 -0.7071 0.7071 0.7071 -175.9706 391.4905)" class="st6" width="287.2" height="34.5"/>
	
		<rect x="265.4" y="415.3" transform="matrix(0.7071 -0.7071 0.7071 0.7071 -186.0635 415.8581)" class="st7" width="287.2" height="34.5"/>
	<path class="st8" d="M522.7,343.2l-48.7-48.7l24.3-24.3c3.1-3.1,8.1-3.1,11.2,0l37.6,37.6c3.1,3.1,3.1,8.1,0,11.2L522.7,343.2z"/>
	<g>
		
			<rect x="476" y="300.9" transform="matrix(0.7071 -0.7071 0.7071 0.7071 -96.0714 438.8589)" class="st9" width="11.5" height="68.9"/>
		
			<rect x="459.7" y="317.2" transform="matrix(0.7071 -0.7071 0.7071 0.7071 -112.3143 432.1219)" class="st9" width="11.5" height="68.9"/>
	</g>
</g>
</svg>
