<?xml version="1.0" encoding="utf-8"?>
<!-- Generator: Adobe Illustrator 23.1.1, SVG Export Plug-In . SVG Version: 6.00 Build 0)  -->
<svg version="1.1" id="Layer_1" xmlns="http://www.w3.org/2000/svg" xmlns:xlink="http://www.w3.org/1999/xlink" x="0px" y="0px"
	 viewBox="0 0 549.4 564" style="enable-background:new 0 0 549.4 564;" xml:space="preserve">
<style type="text/css">
	.st0{fill:#DFEEF4;}
	.st1{fill:#F45858;}
	.st2{fill:#3EA2E5;}
	.st3{fill:#FF3366;}
	.st4{fill:none;}
	.st5{fill:#FFCE00;}
	.st6{fill:#FDBA12;}
	.st7{fill:#FFFFFF;}
	.st8{fill:#E9EDF5;}
	.st9{fill:#6D7A84;}
</style>
<g>
	<g>
		<path class="st0" d="M0,132.2h461.5v329.3H0V132.2z"/>
		<path class="st1" d="M0,38.1h461.5v94.1H0V38.1z"/>
	</g>
	<g>
		<circle class="st2" cx="85.4" cy="203" r="25.1"/>
		<circle class="st2" cx="182.3" cy="203" r="25.1"/>
		<circle class="st2" cx="279.2" cy="203" r="25.1"/>
		<circle class="st2" cx="376.1" cy="203" r="25.1"/>
		<circle class="st2" cx="85.4" cy="296.9" r="25.1"/>
		<circle class="st2" cx="182.3" cy="296.9" r="25.1"/>
		<circle class="st2" cx="279.2" cy="296.9" r="25.1"/>
		<circle class="st2" cx="376.1" cy="296.9" r="25.1"/>
		<circle class="st2" cx="85.4" cy="390.8" r="25.1"/>
		<circle class="st2" cx="182.3" cy="390.8" r="25.1"/>
		<circle class="st2" cx="279.2" cy="390.8" r="25.1"/>
		<circle class="st2" cx="376.1" cy="390.8" r="25.1"/>
	</g>
</g>
<g>
	<g>
		<g>
			<g>
				<g>
					<g>
						<g>
							<g>
								<g>
									<circle class="st3" cx="396.8" cy="411.4" r="152.6"/>
								</g>
							</g>
						</g>
					</g>
				</g>
			</g>
		</g>
	</g>
	<g>
		<g>
			<path class="st4" d="M354.9,420.8l-23,23c-8.9,8.9-8.9,23.5,0,32.4c8.9,8.9,23.5,8.9,32.4,0l23-23c-7.3-2.5-14.1-6.7-19.9-12.5
				C361.6,434.9,357.4,428.1,354.9,420.8L354.9,420.8z"/>
		</g>
		<g>
			<path class="st4" d="M438.7,401.9l23-23c8.9-8.9,8.9-23.5,0-32.4c-8.9-8.9-23.5-8.9-32.4,0l-23,23c7.3,2.5,14.1,6.7,19.9,12.5
				C432,387.8,436.1,394.6,438.7,401.9L438.7,401.9z"/>
		</g>
		<g>
			
				<ellipse transform="matrix(0.7071 -0.7071 0.7071 0.7071 -174.6742 401.007)" class="st4" cx="396.7" cy="411.4" rx="11.8" ry="20"/>
		</g>
		<g>
			<path class="st5" d="M406.2,369.5l-17.8,17.8c-2.9,2.9-4.8,6.3-5.8,10c7.7-2.2,16.4-0.2,22.5,5.8c6.1,6.1,8,14.7,5.8,22.5
				c-1,3.7-3,7.1-5.8,10l-17.8,17.8l-23,23c-8.9,8.9-23.5,8.9-32.4,0c-8.9-8.9-8.9-23.5,0-32.4l23-23c-5.2-15.1-3.4-32.1,5.4-45.9
				c-3.1,2-6,4.4-8.8,7.1l-40.8,40.8c-20.6,20.6-20.6,54,0,74.6c20.6,20.6,54,20.6,74.6,0l40.8-40.8c2.7-2.7,5.1-5.7,7.1-8.8
				c8.9-13.8,10.7-30.8,5.4-45.9c-2.5-7.3-6.7-14.1-12.5-19.9C420.3,376.2,413.5,372,406.2,369.5L406.2,369.5z"/>
		</g>
		<g>
			<path class="st6" d="M405.1,403c6.1,6.1,8,14.7,5.8,22.5c-1,3.7-3,7.1-5.8,10l-17.8,17.8l-23,23c-8.9,8.9-23.5,8.9-32.4,0
				c-0.1-0.1-0.3-0.3-0.4-0.4L310.3,497c0.1,0.1,0.3,0.3,0.4,0.4c20.6,20.6,54,20.6,74.6,0l40.8-40.8c2.7-2.7,5.1-5.7,7.1-8.8
				c8.9-13.8,10.7-30.8,5.4-45.9c-2.5-7.3-6.7-14.1-12.5-19.9L405.1,403z"/>
		</g>
		<g>
			<path class="st7" d="M408.2,325.3l-40.8,40.8c-2.7,2.7-5.1,5.7-7.1,8.8c-8.9,13.8-10.7,30.8-5.4,45.9c2.5,7.3,6.7,14.1,12.5,19.9
				c5.8,5.8,12.6,10,19.9,12.5l17.8-17.8c2.9-2.9,4.8-6.3,5.8-10c-7.7,2.2-16.4,0.2-22.5-5.8c-6.1-6.1-8-14.7-5.8-22.5
				c1-3.7,3-7.1,5.8-10l17.8-17.8l23-23c8.9-8.9,23.5-8.9,32.4,0c8.9,8.9,8.9,23.5,0,32.4l-23,23c5.2,15.1,3.4,32.1-5.4,45.9
				c3.1-2,6-4.4,8.8-7.1l40.8-40.8c20.6-20.6,20.6-54,0-74.6C462.2,304.8,428.7,304.8,408.2,325.3L408.2,325.3z"/>
		</g>
		<g>
			<path class="st8" d="M367.4,440.7c5.8,5.8,12.6,10,19.9,12.5l17.8-17.8c2.9-2.9,4.8-6.3,5.8-10c-7.7,2.2-16.4,0.2-22.5-5.8
				L367.4,440.7z"/>
			<path class="st8" d="M461.7,346.4c8.9,8.9,8.9,23.5,0,32.4l-23,23c5.2,15.1,3.4,32.1-5.4,45.9c3.1-2,6-4.4,8.8-7.1l40.8-40.8
				c20.6-20.6,20.6-54,0-74.6L461.7,346.4z"/>
		</g>
	</g>
</g>
<g>
	<path class="st9" d="M215.9,0h29.8v76.2h-29.8V0z"/>
	<path class="st9" d="M335,0h29.8v76.2H335V0z"/>
	<path class="st9" d="M96.7,0h29.8v76.2H96.7V0z"/>
</g>
</svg>
